<svg id="Group_42" data-name="Group 42" xmlns="http://www.w3.org/2000/svg" xmlns:xlink="http://www.w3.org/1999/xlink" width="126.5" height="33" viewBox="0 0 126.5 33">
  <defs>
    <clipPath id="clip-path">
      <rect id="Rectangle_24" data-name="Rectangle 24" width="126.5" height="33" fill="none"/>
    </clipPath>
  </defs>
  <path id="Path_1" data-name="Path 1" d="M270.51,33.333h-3.843V55.126h14.662V51.875H270.51Z" transform="translate(-222.667 -27.833)" fill="#2a1468"/>
  <g id="Group_41" data-name="Group 41">
    <g id="Group_40" data-name="Group 40" clip-path="url(#clip-path)">
      <path id="Path_2" data-name="Path 2" d="M376.991,70.766a6.211,6.211,0,0,0-2.232-1.567,7.318,7.318,0,0,0-2.823-.532,8.385,8.385,0,0,0-4.124,1,7.177,7.177,0,0,0-2.838,2.823,9.362,9.362,0,0,0,0,8.5,7.144,7.144,0,0,0,2.838,2.838,8.378,8.378,0,0,0,4.124,1.005,7.644,7.644,0,0,0,2.971-.562,5.715,5.715,0,0,0,2.261-1.685v2.04h3.518V68.844h-3.7Zm-1.271,9.548a4.514,4.514,0,0,1-3.37,1.36,4.466,4.466,0,0,1-3.355-1.36,5.521,5.521,0,0,1,0-7.154,4.467,4.467,0,0,1,3.355-1.36,4.516,4.516,0,0,1,3.37,1.36,5.474,5.474,0,0,1,0,7.154" transform="translate(-303.902 -57.337)" fill="#2a1468"/>
      <path id="Path_3" data-name="Path 3" d="M489.785,76.057a21.644,21.644,0,0,0-3.1-.68,14.289,14.289,0,0,1-2.794-.695,1.284,1.284,0,0,1-.9-1.256,1.455,1.455,0,0,1,.842-1.286,5.012,5.012,0,0,1,2.468-.488,8.757,8.757,0,0,1,4.523,1.182l1.419-2.808a9.144,9.144,0,0,0-2.661-.99,14.644,14.644,0,0,0-3.252-.369,8.545,8.545,0,0,0-5.07,1.345,4.205,4.205,0,0,0-1.877,3.592,3.754,3.754,0,0,0,.9,2.675,4.871,4.871,0,0,0,2.128,1.345,21.914,21.914,0,0,0,3.178.68,14.556,14.556,0,0,1,2.7.621,1.165,1.165,0,0,1,.842,1.153q0,1.745-3.311,1.744a10.615,10.615,0,0,1-2.941-.429,9.107,9.107,0,0,1-2.557-1.138l-1.419,2.808a9.427,9.427,0,0,0,2.927,1.271,14.142,14.142,0,0,0,3.754.5,9.06,9.06,0,0,0,5.232-1.33,4.116,4.116,0,0,0,1.922-3.547,3.628,3.628,0,0,0-.872-2.6,4.862,4.862,0,0,0-2.084-1.3" transform="translate(-399.887 -57.337)" fill="#2a1468"/>
      <path id="Path_4" data-name="Path 4" d="M582.957,76.057a21.652,21.652,0,0,0-3.1-.68,14.287,14.287,0,0,1-2.794-.695,1.284,1.284,0,0,1-.9-1.256A1.455,1.455,0,0,1,577,72.14a5.013,5.013,0,0,1,2.468-.488,8.759,8.759,0,0,1,4.523,1.182l1.419-2.808a9.139,9.139,0,0,0-2.66-.99,14.647,14.647,0,0,0-3.252-.369,8.544,8.544,0,0,0-5.07,1.345,4.205,4.205,0,0,0-1.877,3.592,3.754,3.754,0,0,0,.9,2.675,4.872,4.872,0,0,0,2.128,1.345,21.929,21.929,0,0,0,3.178.68,14.556,14.556,0,0,1,2.7.621,1.166,1.166,0,0,1,.842,1.153q0,1.745-3.311,1.744a10.614,10.614,0,0,1-2.941-.429,9.113,9.113,0,0,1-2.557-1.138l-1.419,2.808a9.425,9.425,0,0,0,2.926,1.271,14.142,14.142,0,0,0,3.754.5,9.061,9.061,0,0,0,5.232-1.33,4.116,4.116,0,0,0,1.921-3.547,3.628,3.628,0,0,0-.872-2.6,4.866,4.866,0,0,0-2.084-1.3" transform="translate(-477.686 -57.337)" fill="#2a1468"/>
      <path id="Path_5" data-name="Path 5" d="M680.466,72.569a7.579,7.579,0,0,0-3-2.867,9.582,9.582,0,0,0-8.662,0,7.576,7.576,0,0,0-3,2.867,8.618,8.618,0,0,0,0,8.351,7.542,7.542,0,0,0,3,2.882,9.581,9.581,0,0,0,8.662,0,7.545,7.545,0,0,0,3-2.882,8.618,8.618,0,0,0,0-8.351m-3.976,7.745a4.514,4.514,0,0,1-3.37,1.36,4.466,4.466,0,0,1-3.355-1.36,5.521,5.521,0,0,1,0-7.154,4.467,4.467,0,0,1,3.355-1.36,4.515,4.515,0,0,1,3.37,1.36,5.474,5.474,0,0,1,0,7.154" transform="translate(-555.045 -57.337)" fill="#2a1468"/>
      <path id="Path_6" data-name="Path 6" d="M52.2,140.356H32.87a5.422,5.422,0,0,0,4.443-2.313l6.633-9.473v3.536a8.251,8.251,0,0,0,8.25,8.25" transform="translate(-27.446 -107.356)" fill="#2a1468"/>
      <path id="Path_7" data-name="Path 7" d="M16.5,8.25V21.214L9.867,30.687A5.424,5.424,0,0,1,0,27.576V1.65A1.65,1.65,0,0,1,1.65,0h6.6A8.249,8.249,0,0,1,16.5,8.25" fill="#915ff2"/>
      <path id="Path_8" data-name="Path 8" d="M116.5,108.25v6.6a1.65,1.65,0,0,1-1.65,1.65h-6.6a8.251,8.251,0,0,1-8.25-8.25v-3.538l.462-.658A9.5,9.5,0,0,1,108.25,100a8.249,8.249,0,0,1,8.25,8.25" transform="translate(-83.5 -83.5)" fill="#ffae45"/>
    </g>
  </g>
</svg>
